<svg width="154" height="154" viewBox="0 0 154 154" fill="none" xmlns="http://www.w3.org/2000/svg">
<path d="M77.0001 18.4805C115.5 18.4805 130.9 33.8805 130.9 64.6805C130.9 101.893 104.297 127.133 81.9961 139.167C78.8723 140.852 75.1279 140.852 72.0041 139.167C49.7032 127.133 23.1001 101.893 23.1001 64.6805C23.1001 33.8805 38.5001 18.4805 77.0001 18.4805Z" fill="url(#paint0_linear_34_2585)"/>
<path d="M61.4279 58.7788C61.542 58.6075 61.6802 58.455 61.8434 58.3298C69.5384 52.4239 84.4618 52.4239 92.1568 58.3298C92.3201 58.455 92.4582 58.6075 92.5724 58.7788L101.046 71.4898C101.417 72.0462 102.044 72.3673 102.71 72.4287C108.157 72.9317 110.88 77.276 110.88 81.6204C110.88 87.0743 108.466 90.1139 103.637 90.739C102.541 90.8808 101.64 91.7558 101.64 92.8604V100.1C101.64 104.72 92.4001 104.72 92.4001 100.1V92.8604C92.4001 91.7558 91.5047 90.8604 90.4001 90.8604H63.6001C62.4955 90.8604 61.6001 91.7558 61.6001 92.8604V100.1C61.6001 104.72 52.3601 104.72 52.3601 100.1V92.8604C52.3601 91.7558 51.4588 90.8808 50.3633 90.739C45.5345 90.1139 43.1201 87.0743 43.1201 81.6204C43.1201 77.276 45.8436 72.9317 51.2905 72.4287C51.9563 72.3673 52.5829 72.0462 52.9539 71.4898L61.4279 58.7788Z" fill="white"/>
<path d="M64.49 61.8848C64.6158 61.6962 64.7706 61.5299 64.9557 61.399C71.1078 57.0467 82.8923 57.0467 89.0444 61.399C89.2295 61.5299 89.3843 61.6962 89.5101 61.8848L93.4071 67.7304C94.2932 69.0595 93.3404 70.8398 91.743 70.8398H62.2571C60.6597 70.8398 59.7069 69.0595 60.593 67.7304L64.49 61.8848Z" fill="url(#paint1_linear_34_2585)"/>
<path d="M55.4398 85.4695C57.5661 85.4695 59.2898 83.7458 59.2898 81.6195C59.2898 79.4932 57.5661 77.7695 55.4398 77.7695C53.3135 77.7695 51.5898 79.4932 51.5898 81.6195C51.5898 83.7458 53.3135 85.4695 55.4398 85.4695Z" fill="url(#paint2_linear_34_2585)"/>
<path d="M98.56 85.4695C100.686 85.4695 102.41 83.7458 102.41 81.6195C102.41 79.4932 100.686 77.7695 98.56 77.7695C96.4337 77.7695 94.71 79.4932 94.71 81.6195C94.71 83.7458 96.4337 85.4695 98.56 85.4695Z" fill="url(#paint3_linear_34_2585)"/>
<path d="M69.2998 84.2734C69.2998 83.7402 69.8391 83.3749 70.3431 83.5492C74.7809 85.0838 79.2187 85.0838 83.6565 83.5492C84.1605 83.3749 84.6998 83.7402 84.6998 84.2734C84.6998 84.5382 84.5607 84.7849 84.3309 84.9162C79.4435 87.7081 74.5561 87.7081 69.6688 84.9162C69.4389 84.7849 69.2998 84.5382 69.2998 84.2734Z" fill="url(#paint4_linear_34_2585)"/>
<defs>
<linearGradient id="paint0_linear_34_2585" x1="77.0001" y1="18.4805" x2="77.0001" y2="141.68" gradientUnits="userSpaceOnUse">
<stop stop-color="#6465F0"/>
<stop offset="1" stop-color="#3C3CA0"/>
</linearGradient>
<linearGradient id="paint1_linear_34_2585" x1="77" y1="58.1348" x2="77" y2="70.8398" gradientUnits="userSpaceOnUse">
<stop stop-color="#6465F0"/>
<stop offset="1" stop-color="#3C3CA0"/>
</linearGradient>
<linearGradient id="paint2_linear_34_2585" x1="55.4398" y1="77.7695" x2="55.4398" y2="85.4695" gradientUnits="userSpaceOnUse">
<stop stop-color="#6465F0"/>
<stop offset="1" stop-color="#3C3CA0"/>
</linearGradient>
<linearGradient id="paint3_linear_34_2585" x1="98.56" y1="77.7695" x2="98.56" y2="85.4695" gradientUnits="userSpaceOnUse">
<stop stop-color="#6465F0"/>
<stop offset="1" stop-color="#3C3CA0"/>
</linearGradient>
<linearGradient id="paint4_linear_34_2585" x1="76.9998" y1="83.1602" x2="76.9998" y2="87.0102" gradientUnits="userSpaceOnUse">
<stop stop-color="#6465F0"/>
<stop offset="1" stop-color="#3C3CA0"/>
</linearGradient>
</defs>
</svg>
